M48
; DRILL file {KiCad (6.0.7)} date Wed 24 Aug 2022 07:02:33 PM CEST
; FORMAT={-:-/ absolute / inch / decimal}
; #@! TF.CreationDate,2022-08-24T19:02:33+02:00
; #@! TF.GenerationSoftware,Kicad,Pcbnew,(6.0.7)
; #@! TF.FileFunction,Plated,1,2,PTH
FMAT,2
INCH
; #@! TA.AperFunction,Plated,PTH,ComponentDrill
T1C0.0118
; #@! TA.AperFunction,Plated,PTH,ComponentDrill
T2C0.0157
; #@! TA.AperFunction,Plated,PTH,ComponentDrill
T3C0.0295
; #@! TA.AperFunction,Plated,PTH,ComponentDrill
T4C0.0433
; #@! TA.AperFunction,Plated,PTH,ComponentDrill
T5C0.0500
%
G90
G05
T1
X3.622Y-0.0787
T2
X3.5527Y1.2193
X3.5527Y1.1193
X3.5527Y1.0193
X3.5527Y0.9193
X3.5527Y0.8193
X3.5527Y0.7193
X3.5527Y0.6193
X3.5527Y0.5193
X3.5527Y0.4193
X3.5527Y0.3193
X3.5527Y0.2193
X3.5527Y0.1193
X3.6127Y1.2193
X3.6127Y1.1193
X3.6127Y1.0193
X3.6127Y0.9193
X3.6127Y0.8193
X3.6127Y0.7193
X3.6127Y0.6193
X3.6127Y0.5193
X3.6127Y0.4193
X3.6127Y0.3193
X3.6127Y0.2193
X3.6127Y0.1193
T3
X3.5039Y-0.2362
X3.5827Y-0.2362
X3.6614Y-0.2362
T4
X3.2827Y1.2193
X3.2827Y1.2193
X3.2827Y1.1193
X3.2827Y1.0193
X3.2827Y0.9193
X3.2827Y0.8193
X3.2827Y0.7193
X3.2827Y0.6193
X3.2827Y0.5193
X3.2827Y0.4193
X3.2827Y0.3193
X3.2827Y0.2193
X3.2827Y0.1193
X3.8827Y1.2193
X3.8827Y1.2193
X3.8827Y1.1193
X3.8827Y1.0193
X3.8827Y0.9193
X3.8827Y0.8193
X3.8827Y0.7193
X3.8827Y0.6193
X3.8827Y0.5193
X3.8827Y0.4193
X3.8827Y0.3193
X3.8827Y0.2193
X3.8827Y0.1193
T5
X-0.1969Y1.189
X-0.1969Y0.5197
X-0.1969Y-0.1496
X0.0Y1.1063
X0.0Y1.1063
X0.0Y0.437
X0.0Y0.437
X0.0Y-0.2323
X0.0Y-0.2323
X0.1969Y1.189
X0.1969Y0.5197
X0.1969Y-0.1496
X0.5118Y1.189
X0.5118Y0.5197
X0.5118Y-0.1496
X0.7087Y1.1063
X0.7087Y1.1063
X0.7087Y0.437
X0.7087Y0.437
X0.7087Y-0.2323
X0.7087Y-0.2323
X0.9055Y1.189
X0.9055Y0.5197
X0.9055Y-0.1496
X1.2205Y1.189
X1.2205Y0.5197
X1.2205Y-0.1496
X1.4173Y1.1063
X1.4173Y1.1063
X1.4173Y0.437
X1.4173Y0.437
X1.4173Y-0.2323
X1.4173Y-0.2323
X1.6142Y1.189
X1.6142Y0.5197
X1.6142Y-0.1496
X1.9291Y1.189
X1.9291Y0.5197
X1.9291Y-0.1496
X1.9291Y-0.8189
X2.126Y1.1063
X2.126Y1.1063
X2.126Y0.437
X2.126Y0.437
X2.126Y-0.2323
X2.126Y-0.2323
X2.126Y-0.9016
X2.126Y-0.9016
X2.3228Y1.189
X2.3228Y0.5197
X2.3228Y-0.1496
X2.3228Y-0.8189
X2.6378Y1.189
X2.6378Y0.5197
X2.6378Y-0.1496
X2.6378Y-0.8189
X2.8346Y1.1063
X2.8346Y1.1063
X2.8346Y0.437
X2.8346Y0.437
X2.8346Y-0.2323
X2.8346Y-0.2323
X2.8346Y-0.9016
X2.8346Y-0.9016
X3.0315Y1.189
X3.0315Y0.5197
X3.0315Y-0.1496
X3.0315Y-0.8189
X3.3465Y-0.8189
X3.5433Y-0.9016
X3.5433Y-0.9016
X3.7402Y-0.8189
T0
M30
