%TF.GenerationSoftware,KiCad,Pcbnew,(6.0.7)*%
%TF.CreationDate,2022-08-24T19:26:19+02:00*%
%TF.ProjectId,leko_pona,6c656b6f-5f70-46f6-9e61-2e6b69636164,v1.0.0*%
%TF.SameCoordinates,Original*%
%TF.FileFunction,Legend,Bot*%
%TF.FilePolarity,Positive*%
%FSLAX46Y46*%
G04 Gerber Fmt 4.6, Leading zero omitted, Abs format (unit mm)*
G04 Created by KiCad (PCBNEW (6.0.7)) date 2022-08-24 19:26:19*
%MOMM*%
%LPD*%
G01*
G04 APERTURE LIST*
%ADD10C,0.350000*%
%ADD11C,0.150000*%
G04 APERTURE END LIST*
D10*
X81750000Y-5750000D02*
X86250000Y-5750000D01*
X86250000Y-5750000D02*
X86250000Y-1250000D01*
X86250000Y-1250000D02*
X81750000Y-1250000D01*
X81750000Y-1250000D02*
X81750000Y-5750000D01*
X83000000Y-4000000D02*
G75*
G03*
X85000000Y-4000000I1000000J999999D01*
G01*
X82500000Y-5000000D02*
X85500000Y-5000000D01*
X85500000Y-5000000D02*
X85500000Y-2000000D01*
X85500000Y-2000000D02*
X82500000Y-2000000D01*
X82500000Y-2000000D02*
X82500000Y-5000000D01*
D11*
%TO.C,MCU1*%
X99890000Y29700000D02*
X99890000Y32240000D01*
X97350000Y32240000D02*
X99890000Y32240000D01*
X97350000Y29700000D02*
X99890000Y29700000D01*
X97350000Y32240000D02*
X97350000Y29700000D01*
%TO.C,JST1*%
X88750000Y-4250000D02*
X89250000Y-4250000D01*
X87750000Y-7350000D02*
X87750000Y-5750000D01*
X92950000Y250000D02*
X87050000Y250000D01*
X92250000Y-5750000D02*
X92250000Y-7350000D01*
X92250000Y-7350000D02*
X92950000Y-7350000D01*
X87050000Y-7350000D02*
X87750000Y-7350000D01*
X92950000Y-7350000D02*
X92950000Y250000D01*
X89000000Y-4500000D02*
X89000000Y-4000000D01*
X87750000Y-5750000D02*
X92250000Y-5750000D01*
X87050000Y250000D02*
X87050000Y-7350000D01*
%TD*%
M02*
