%TF.GenerationSoftware,KiCad,Pcbnew,(6.0.7)*%
%TF.CreationDate,2022-08-24T19:26:19+02:00*%
%TF.ProjectId,leko_pona,6c656b6f-5f70-46f6-9e61-2e6b69636164,v1.0.0*%
%TF.SameCoordinates,Original*%
%TF.FileFunction,Paste,Bot*%
%TF.FilePolarity,Positive*%
%FSLAX46Y46*%
G04 Gerber Fmt 4.6, Leading zero omitted, Abs format (unit mm)*
G04 Created by KiCad (PCBNEW (6.0.7)) date 2022-08-24 19:26:19*
%MOMM*%
%LPD*%
G01*
G04 APERTURE LIST*
%ADD10R,2.600000X2.600000*%
%ADD11R,1.000000X0.800000*%
%ADD12R,0.700000X1.500000*%
G04 APERTURE END LIST*
D10*
%TO.C,S31*%
X50725000Y-11050000D03*
X62275000Y-13250000D03*
%TD*%
%TO.C,S19*%
X50725000Y5950000D03*
X62275000Y3750000D03*
%TD*%
%TO.C,S9*%
X14725000Y22950000D03*
X26275000Y20750000D03*
%TD*%
%TO.C,S11*%
X14725000Y39950000D03*
X26275000Y37750000D03*
%TD*%
%TO.C,S7*%
X14725000Y5950000D03*
X26275000Y3750000D03*
%TD*%
%TO.C,S23*%
X50725000Y39950000D03*
X62275000Y37750000D03*
%TD*%
%TO.C,S1*%
X-3275000Y5950000D03*
X8275000Y3750000D03*
%TD*%
D11*
%TO.C,*%
X98930000Y-7650000D03*
X96720000Y-350000D03*
X98930000Y-350000D03*
X96720000Y-7650000D03*
D12*
X96070000Y-1750000D03*
X96070000Y-4750000D03*
X96070000Y-6250000D03*
%TD*%
D10*
%TO.C,S33*%
X68725000Y-11050000D03*
X80275000Y-13250000D03*
%TD*%
%TO.C,S27*%
X68725000Y22950000D03*
X80275000Y20750000D03*
%TD*%
%TO.C,S15*%
X32725000Y22950000D03*
X44275000Y20750000D03*
%TD*%
%TO.C,S21*%
X50725000Y22950000D03*
X62275000Y20750000D03*
%TD*%
%TO.C,S29*%
X68725000Y39950000D03*
X80275000Y37750000D03*
%TD*%
%TO.C,S25*%
X68725000Y5950000D03*
X80275000Y3750000D03*
%TD*%
%TO.C,S17*%
X32725000Y39950000D03*
X44275000Y37750000D03*
%TD*%
%TO.C,S35*%
X86725000Y-11050000D03*
X98275000Y-13250000D03*
%TD*%
%TO.C,S13*%
X32725000Y5950000D03*
X44275000Y3750000D03*
%TD*%
%TO.C,S3*%
X-3275000Y22950000D03*
X8275000Y20750000D03*
%TD*%
%TO.C,S5*%
X-3275000Y39950000D03*
X8275000Y37750000D03*
%TD*%
M02*
