%TF.GenerationSoftware,KiCad,Pcbnew,(6.0.7)*%
%TF.CreationDate,2022-08-24T19:26:19+02:00*%
%TF.ProjectId,leko_pona,6c656b6f-5f70-46f6-9e61-2e6b69636164,v1.0.0*%
%TF.SameCoordinates,Original*%
%TF.FileFunction,Copper,L2,Bot*%
%TF.FilePolarity,Positive*%
%FSLAX46Y46*%
G04 Gerber Fmt 4.6, Leading zero omitted, Abs format (unit mm)*
G04 Created by KiCad (PCBNEW (6.0.7)) date 2022-08-24 19:26:19*
%MOMM*%
%LPD*%
G01*
G04 APERTURE LIST*
G04 Aperture macros list*
%AMFreePoly0*
4,1,5,0.125000,-0.500000,-0.125000,-0.500000,-0.125000,0.500000,0.125000,0.500000,0.125000,-0.500000,0.125000,-0.500000,$1*%
%AMFreePoly1*
4,1,6,0.600000,0.200000,0.000000,-0.400000,-0.600000,0.200000,-0.600000,0.400000,0.600000,0.400000,0.600000,0.200000,0.600000,0.200000,$1*%
%AMFreePoly2*
4,1,49,0.004773,0.123721,0.009154,0.124665,0.028961,0.117240,0.062500,0.108253,0.068237,0.102516,0.075053,0.099961,0.087617,0.083136,0.108253,0.062500,0.111178,0.051584,0.117161,0.043572,0.118539,0.024114,0.125000,0.000000,0.121239,-0.014035,0.122131,-0.026629,0.113759,-0.041951,0.108253,-0.062500,0.095644,-0.075109,0.088389,-0.088388,-0.641000,-0.817776,-0.641000,-4.770224,
0.088389,-5.499612,0.109852,-5.528356,0.124665,-5.597154,0.099961,-5.663053,0.043572,-5.705161,-0.026629,-5.710131,-0.088388,-5.676389,-0.854388,-4.910388,-0.867707,-4.892552,-0.871189,-4.889530,-0.871982,-4.886826,-0.875852,-4.881644,-0.882331,-4.851549,-0.891000,-4.822000,-0.891000,-0.766000,-0.887805,-0.743969,-0.888131,-0.739371,-0.886780,-0.736898,-0.885852,-0.730498,-0.869151,-0.704632,
-0.854388,-0.677612,-0.088388,0.088389,-0.064606,0.106147,-0.062500,0.108253,-0.061385,0.108552,-0.059644,0.109852,-0.043806,0.113262,0.000000,0.125000,0.004773,0.123721,0.004773,0.123721,$1*%
%AMFreePoly3*
4,1,6,0.600000,-0.250000,-0.600000,-0.250000,-0.600000,1.000000,0.000000,0.400000,0.600000,1.000000,0.600000,-0.250000,0.600000,-0.250000,$1*%
G04 Aperture macros list end*
%TA.AperFunction,SMDPad,CuDef*%
%ADD10R,2.600000X2.600000*%
%TD*%
%TA.AperFunction,ComponentPad*%
%ADD11C,0.600000*%
%TD*%
%TA.AperFunction,ComponentPad*%
%ADD12C,2.032000*%
%TD*%
%TA.AperFunction,SMDPad,CuDef*%
%ADD13R,1.000000X0.800000*%
%TD*%
%TA.AperFunction,SMDPad,CuDef*%
%ADD14R,0.700000X1.500000*%
%TD*%
%TA.AperFunction,SMDPad,CuDef*%
%ADD15FreePoly0,90.000000*%
%TD*%
%TA.AperFunction,SMDPad,CuDef*%
%ADD16FreePoly1,270.000000*%
%TD*%
%TA.AperFunction,SMDPad,CuDef*%
%ADD17FreePoly1,90.000000*%
%TD*%
%TA.AperFunction,SMDPad,CuDef*%
%ADD18FreePoly0,270.000000*%
%TD*%
%TA.AperFunction,ComponentPad*%
%ADD19C,1.600000*%
%TD*%
%TA.AperFunction,ComponentPad*%
%ADD20R,1.600000X1.600000*%
%TD*%
%TA.AperFunction,SMDPad,CuDef*%
%ADD21FreePoly2,270.000000*%
%TD*%
%TA.AperFunction,SMDPad,CuDef*%
%ADD22FreePoly3,90.000000*%
%TD*%
%TA.AperFunction,ComponentPad*%
%ADD23C,0.800000*%
%TD*%
%TA.AperFunction,SMDPad,CuDef*%
%ADD24FreePoly3,270.000000*%
%TD*%
%TA.AperFunction,SMDPad,CuDef*%
%ADD25FreePoly2,90.000000*%
%TD*%
%TA.AperFunction,ComponentPad*%
%ADD26R,1.200000X1.700000*%
%TD*%
%TA.AperFunction,ComponentPad*%
%ADD27O,1.200000X1.700000*%
%TD*%
%TA.AperFunction,Conductor*%
%ADD28C,0.250000*%
%TD*%
G04 APERTURE END LIST*
D10*
%TO.P,S31,1*%
%TO.N,thumb_tucky_default*%
X50725000Y-11050000D03*
%TO.P,S31,2*%
%TO.N,GND*%
X62275000Y-13250000D03*
%TD*%
%TO.P,S19,1*%
%TO.N,main_index_bottom*%
X50725000Y5950000D03*
%TO.P,S19,2*%
%TO.N,GND*%
X62275000Y3750000D03*
%TD*%
%TO.P,S9,1*%
%TO.N,main_ring_home*%
X14725000Y22950000D03*
%TO.P,S9,2*%
%TO.N,GND*%
X26275000Y20750000D03*
%TD*%
%TO.P,S11,1*%
%TO.N,main_ring_top*%
X14725000Y39950000D03*
%TO.P,S11,2*%
%TO.N,GND*%
X26275000Y37750000D03*
%TD*%
%TO.P,S7,1*%
%TO.N,main_ring_bottom*%
X14725000Y5950000D03*
%TO.P,S7,2*%
%TO.N,GND*%
X26275000Y3750000D03*
%TD*%
D11*
%TO.P,REF\u002A\u002A,1*%
%TO.N,RAW*%
X92000000Y-2000000D03*
%TD*%
D10*
%TO.P,S23,1*%
%TO.N,main_index_top*%
X50725000Y39950000D03*
%TO.P,S23,2*%
%TO.N,GND*%
X62275000Y37750000D03*
%TD*%
%TO.P,S1,1*%
%TO.N,main_pinky_bottom*%
X-3275000Y5950000D03*
%TO.P,S1,2*%
%TO.N,GND*%
X8275000Y3750000D03*
%TD*%
D12*
%TO.P,S28,1*%
%TO.N,main_inner_home*%
X67000000Y13200000D03*
X77000000Y13200000D03*
%TO.P,S28,2*%
%TO.N,GND*%
X72000000Y11100000D03*
X72000000Y11100000D03*
%TD*%
%TO.P,S8,1*%
%TO.N,main_ring_bottom*%
X13000000Y-3800000D03*
X23000000Y-3800000D03*
%TO.P,S8,2*%
%TO.N,GND*%
X18000000Y-5900000D03*
X18000000Y-5900000D03*
%TD*%
%TO.P,S20,1*%
%TO.N,main_index_bottom*%
X49000000Y-3800000D03*
X59000000Y-3800000D03*
%TO.P,S20,2*%
%TO.N,GND*%
X54000000Y-5900000D03*
X54000000Y-5900000D03*
%TD*%
D13*
%TO.P,,*%
%TO.N,*%
X98930000Y-7650000D03*
X96720000Y-350000D03*
X98930000Y-350000D03*
X96720000Y-7650000D03*
D14*
%TO.P,,1*%
%TO.N,pos*%
X96070000Y-1750000D03*
%TO.P,,2*%
%TO.N,RAW*%
X96070000Y-4750000D03*
%TO.P,,3*%
%TO.N,N/C*%
X96070000Y-6250000D03*
%TD*%
D10*
%TO.P,S33,1*%
%TO.N,thumb_middle_default*%
X68725000Y-11050000D03*
%TO.P,S33,2*%
%TO.N,GND*%
X80275000Y-13250000D03*
%TD*%
D12*
%TO.P,S22,1*%
%TO.N,main_index_home*%
X59000000Y13200000D03*
X49000000Y13200000D03*
%TO.P,S22,2*%
%TO.N,GND*%
X54000000Y11100000D03*
X54000000Y11100000D03*
%TD*%
%TO.P,S6,1*%
%TO.N,main_pinky_top*%
X5000000Y30200000D03*
X-5000000Y30200000D03*
%TO.P,S6,2*%
%TO.N,GND*%
X0Y28100000D03*
X0Y28100000D03*
%TD*%
D10*
%TO.P,S27,1*%
%TO.N,main_inner_home*%
X68725000Y22950000D03*
%TO.P,S27,2*%
%TO.N,GND*%
X80275000Y20750000D03*
%TD*%
D12*
%TO.P,S14,1*%
%TO.N,main_middle_bottom*%
X41000000Y-3800000D03*
X31000000Y-3800000D03*
%TO.P,S14,2*%
%TO.N,GND*%
X36000000Y-5900000D03*
X36000000Y-5900000D03*
%TD*%
%TO.P,S34,1*%
%TO.N,thumb_middle_default*%
X67000000Y-20800000D03*
X77000000Y-20800000D03*
%TO.P,S34,2*%
%TO.N,GND*%
X72000000Y-22900000D03*
X72000000Y-22900000D03*
%TD*%
D10*
%TO.P,S15,1*%
%TO.N,main_middle_home*%
X32725000Y22950000D03*
%TO.P,S15,2*%
%TO.N,GND*%
X44275000Y20750000D03*
%TD*%
D12*
%TO.P,S18,1*%
%TO.N,main_middle_top*%
X31000000Y30200000D03*
X41000000Y30200000D03*
%TO.P,S18,2*%
%TO.N,GND*%
X36000000Y28100000D03*
X36000000Y28100000D03*
%TD*%
D10*
%TO.P,S21,1*%
%TO.N,main_index_home*%
X50725000Y22950000D03*
%TO.P,S21,2*%
%TO.N,GND*%
X62275000Y20750000D03*
%TD*%
D12*
%TO.P,S32,1*%
%TO.N,thumb_tucky_default*%
X59000000Y-20800000D03*
X49000000Y-20800000D03*
%TO.P,S32,2*%
%TO.N,GND*%
X54000000Y-22900000D03*
X54000000Y-22900000D03*
%TD*%
%TO.P,S30,1*%
%TO.N,main_inner_top*%
X67000000Y30200000D03*
X77000000Y30200000D03*
%TO.P,S30,2*%
%TO.N,GND*%
X72000000Y28100000D03*
X72000000Y28100000D03*
%TD*%
D10*
%TO.P,S29,1*%
%TO.N,main_inner_top*%
X68725000Y39950000D03*
%TO.P,S29,2*%
%TO.N,GND*%
X80275000Y37750000D03*
%TD*%
%TO.P,S25,1*%
%TO.N,main_inner_bottom*%
X68725000Y5950000D03*
%TO.P,S25,2*%
%TO.N,GND*%
X80275000Y3750000D03*
%TD*%
D12*
%TO.P,S36,1*%
%TO.N,thumb_reachy_default*%
X95000000Y-20800000D03*
X85000000Y-20800000D03*
%TO.P,S36,2*%
%TO.N,GND*%
X90000000Y-22900000D03*
X90000000Y-22900000D03*
%TD*%
D10*
%TO.P,S17,1*%
%TO.N,main_middle_top*%
X32725000Y39950000D03*
%TO.P,S17,2*%
%TO.N,GND*%
X44275000Y37750000D03*
%TD*%
%TO.P,S35,1*%
%TO.N,thumb_reachy_default*%
X86725000Y-11050000D03*
%TO.P,S35,2*%
%TO.N,GND*%
X98275000Y-13250000D03*
%TD*%
D12*
%TO.P,S12,1*%
%TO.N,main_ring_top*%
X13000000Y30200000D03*
X23000000Y30200000D03*
%TO.P,S12,2*%
%TO.N,GND*%
X18000000Y28100000D03*
X18000000Y28100000D03*
%TD*%
D10*
%TO.P,S13,1*%
%TO.N,main_middle_bottom*%
X32725000Y5950000D03*
%TO.P,S13,2*%
%TO.N,GND*%
X44275000Y3750000D03*
%TD*%
D15*
%TO.P,MCU1,*%
%TO.N,*%
X84650000Y10650000D03*
D16*
X96842000Y23350000D03*
D17*
X85158000Y18270000D03*
D15*
X84650000Y28430000D03*
D18*
X97350000Y28430000D03*
D19*
X98620000Y28430000D03*
D18*
X97350000Y18270000D03*
X97350000Y8110000D03*
X97350000Y30970000D03*
D19*
X83380000Y15730000D03*
X98620000Y23350000D03*
X98620000Y8110000D03*
D18*
X97350000Y25890000D03*
D17*
X85158000Y13190000D03*
D16*
X96842000Y30970000D03*
D18*
X97350000Y20810000D03*
D19*
X98620000Y13190000D03*
D16*
X96842000Y28430000D03*
D17*
X85158000Y3030000D03*
D19*
X83380000Y20810000D03*
X83380000Y23350000D03*
X83380000Y10650000D03*
X83380000Y18270000D03*
X98620000Y30970000D03*
X98620000Y3030000D03*
X98620000Y25890000D03*
X83380000Y5570000D03*
D17*
X85158000Y20810000D03*
D15*
X84650000Y23350000D03*
D19*
X98620000Y20810000D03*
D18*
X97350000Y23350000D03*
D16*
X96842000Y18270000D03*
D15*
X84650000Y5570000D03*
D19*
X83380000Y28430000D03*
D17*
X85158000Y8110000D03*
D19*
X83380000Y30970000D03*
D17*
X85158000Y28430000D03*
D18*
X97350000Y5570000D03*
D19*
X98620000Y15730000D03*
X83380000Y25890000D03*
D17*
X85158000Y25890000D03*
D15*
X84650000Y8110000D03*
D17*
X85158000Y30970000D03*
X85158000Y23350000D03*
D15*
X84650000Y15730000D03*
D18*
X97350000Y15730000D03*
D19*
X98620000Y18270000D03*
D16*
X96842000Y5570000D03*
D19*
X98620000Y5570000D03*
D17*
X85158000Y15730000D03*
D20*
X98620000Y30970000D03*
D15*
X84650000Y25890000D03*
D16*
X96842000Y8110000D03*
X96842000Y15730000D03*
X96842000Y25890000D03*
D19*
X83380000Y3030000D03*
X83380000Y8110000D03*
D18*
X97350000Y13190000D03*
D15*
X84650000Y30970000D03*
D16*
X96842000Y20810000D03*
D17*
X85158000Y10650000D03*
D15*
X84650000Y13190000D03*
D16*
X96842000Y13190000D03*
D18*
X97350000Y3030000D03*
D15*
X84650000Y3030000D03*
D18*
X97350000Y10650000D03*
D15*
X84650000Y20810000D03*
X84650000Y18270000D03*
D17*
X85158000Y5570000D03*
D19*
X98620000Y10650000D03*
X83380000Y13190000D03*
D16*
X96842000Y10650000D03*
X96842000Y3030000D03*
D21*
%TO.P,MCU1,1*%
%TO.N,RAW*%
X91762000Y30970000D03*
D22*
X86174000Y30970000D03*
D23*
X91762000Y30970000D03*
%TO.P,MCU1,2*%
%TO.N,GND*%
X91762000Y28430000D03*
D22*
%TO.N,N/C*%
X86174000Y28430000D03*
D21*
%TO.N,GND*%
X91762000Y28430000D03*
D23*
%TO.P,MCU1,3*%
%TO.N,RST*%
X91762000Y25890000D03*
D21*
X91762000Y25890000D03*
D22*
X86174000Y25890000D03*
D21*
%TO.P,MCU1,4*%
%TO.N,VCC*%
X91762000Y23350000D03*
D23*
X91762000Y23350000D03*
D22*
X86174000Y23350000D03*
%TO.P,MCU1,5*%
%TO.N,main_middle_top*%
X86174000Y20810000D03*
D23*
X91762000Y20810000D03*
D21*
X91762000Y20810000D03*
D22*
%TO.P,MCU1,6*%
%TO.N,main_ring_top*%
X86174000Y18270000D03*
D23*
X91762000Y18270000D03*
D21*
X91762000Y18270000D03*
%TO.P,MCU1,7*%
%TO.N,main_pinky_top*%
X91762000Y15730000D03*
D22*
X86174000Y15730000D03*
D23*
X91762000Y15730000D03*
%TO.P,MCU1,8*%
%TO.N,main_inner_home*%
X91762000Y13190000D03*
D22*
X86174000Y13190000D03*
D21*
X91762000Y13190000D03*
D22*
%TO.P,MCU1,9*%
%TO.N,main_index_home*%
X86174000Y10650000D03*
D23*
X91762000Y10650000D03*
D21*
X91762000Y10650000D03*
%TO.P,MCU1,10*%
%TO.N,main_middle_home*%
X91762000Y8110000D03*
D23*
X91762000Y8110000D03*
D22*
X86174000Y8110000D03*
D21*
%TO.P,MCU1,11*%
%TO.N,main_ring_home*%
X91762000Y5570000D03*
D23*
X91762000Y5570000D03*
D22*
X86174000Y5570000D03*
D23*
%TO.P,MCU1,12*%
%TO.N,main_pinky_home*%
X91762000Y3030000D03*
D22*
X86174000Y3030000D03*
D21*
X91762000Y3030000D03*
D24*
%TO.P,MCU1,13*%
%TO.N,thumb_reachy_default*%
X95826000Y3030000D03*
D23*
X90238000Y3030000D03*
D25*
X90238000Y3030000D03*
D23*
%TO.P,MCU1,14*%
%TO.N,thumb_middle_default*%
X90238000Y5570000D03*
D24*
X95826000Y5570000D03*
D25*
X90238000Y5570000D03*
%TO.P,MCU1,15*%
%TO.N,thumb_tucky_default*%
X90238000Y8110000D03*
D24*
X95826000Y8110000D03*
D23*
X90238000Y8110000D03*
%TO.P,MCU1,16*%
%TO.N,main_inner_bottom*%
X90238000Y10650000D03*
D25*
X90238000Y10650000D03*
D24*
X95826000Y10650000D03*
D23*
%TO.P,MCU1,17*%
%TO.N,main_index_bottom*%
X90238000Y13190000D03*
D24*
X95826000Y13190000D03*
D25*
X90238000Y13190000D03*
%TO.P,MCU1,18*%
%TO.N,main_middle_bottom*%
X90238000Y15730000D03*
D24*
X95826000Y15730000D03*
D23*
X90238000Y15730000D03*
D24*
%TO.P,MCU1,19*%
%TO.N,main_ring_bottom*%
X95826000Y18270000D03*
D25*
X90238000Y18270000D03*
D23*
X90238000Y18270000D03*
D25*
%TO.P,MCU1,20*%
%TO.N,main_pinky_bottom*%
X90238000Y20810000D03*
D24*
X95826000Y20810000D03*
D23*
X90238000Y20810000D03*
D25*
%TO.P,MCU1,21*%
%TO.N,GND*%
X90238000Y23350000D03*
D24*
X95826000Y23350000D03*
D23*
X90238000Y23350000D03*
D25*
%TO.P,MCU1,22*%
X90238000Y25890000D03*
D23*
X90238000Y25890000D03*
D24*
X95826000Y25890000D03*
%TO.P,MCU1,23*%
%TO.N,main_index_top*%
X95826000Y28430000D03*
D23*
X90238000Y28430000D03*
D25*
X90238000Y28430000D03*
D24*
%TO.P,MCU1,24*%
%TO.N,main_inner_top*%
X95826000Y30970000D03*
D23*
X90238000Y30970000D03*
D25*
X90238000Y30970000D03*
%TD*%
D12*
%TO.P,S24,1*%
%TO.N,main_index_top*%
X49000000Y30200000D03*
X59000000Y30200000D03*
%TO.P,S24,2*%
%TO.N,GND*%
X54000000Y28100000D03*
X54000000Y28100000D03*
%TD*%
%TO.P,S16,1*%
%TO.N,main_middle_home*%
X41000000Y13200000D03*
X31000000Y13200000D03*
%TO.P,S16,2*%
%TO.N,GND*%
X36000000Y11100000D03*
X36000000Y11100000D03*
%TD*%
%TO.P,S10,1*%
%TO.N,main_ring_home*%
X23000000Y13200000D03*
X13000000Y13200000D03*
%TO.P,S10,2*%
%TO.N,GND*%
X18000000Y11100000D03*
X18000000Y11100000D03*
%TD*%
D10*
%TO.P,S3,1*%
%TO.N,main_pinky_home*%
X-3275000Y22950000D03*
%TO.P,S3,2*%
%TO.N,GND*%
X8275000Y20750000D03*
%TD*%
D12*
%TO.P,S26,1*%
%TO.N,main_inner_bottom*%
X77000000Y-3800000D03*
X67000000Y-3800000D03*
%TO.P,S26,2*%
%TO.N,GND*%
X72000000Y-5900000D03*
X72000000Y-5900000D03*
%TD*%
D26*
%TO.P,JST1,1*%
%TO.N,pos*%
X93000000Y-6000000D03*
D27*
%TO.P,JST1,2*%
%TO.N,GND*%
X91000000Y-6000000D03*
D26*
%TO.P,JST1,3*%
%TO.N,pos*%
X89000000Y-6000000D03*
%TD*%
D12*
%TO.P,S2,1*%
%TO.N,main_pinky_bottom*%
X-5000000Y-3800000D03*
X5000000Y-3800000D03*
%TO.P,S2,2*%
%TO.N,GND*%
X0Y-5900000D03*
X0Y-5900000D03*
%TD*%
%TO.P,S4,1*%
%TO.N,main_pinky_home*%
X-5000000Y13200000D03*
X5000000Y13200000D03*
%TO.P,S4,2*%
%TO.N,GND*%
X0Y11100000D03*
X0Y11100000D03*
%TD*%
D10*
%TO.P,S5,1*%
%TO.N,main_pinky_top*%
X-3275000Y39950000D03*
%TO.P,S5,2*%
%TO.N,GND*%
X8275000Y37750000D03*
%TD*%
D28*
%TO.N,main_pinky_bottom*%
X-5000000Y-3800000D02*
X5000000Y-3800000D01*
X-5000000Y-3800000D02*
X-3000000Y-1800000D01*
X-3000000Y5675000D02*
X-3275000Y5950000D01*
X-3000000Y-1800000D02*
X-3000000Y5675000D01*
%TO.N,GND*%
X92444440Y-9000000D02*
X97178384Y-9000000D01*
X26275000Y30725000D02*
X28900000Y28100000D01*
X94796461Y-22900000D02*
X98275000Y-19421461D01*
X62275000Y3750000D02*
X62275000Y-4146827D01*
X26275000Y20750000D02*
X26275000Y13717988D01*
X80275000Y20750000D02*
X78025000Y18500000D01*
X8275000Y-3652487D02*
X6027487Y-5900000D01*
X44275000Y37750000D02*
X44275000Y32011718D01*
X72000000Y28100000D02*
X75900000Y32000000D01*
X44275000Y20750000D02*
X44275000Y12641119D01*
X78582747Y-22900000D02*
X72000000Y-22900000D01*
X24100000Y-5900000D02*
X18000000Y-5900000D01*
X80275000Y33775000D02*
X80275000Y37750000D01*
X8275000Y20750000D02*
X8275000Y13333625D01*
X54000000Y13500000D02*
X54000000Y11100000D01*
X10645829Y28100000D02*
X8275000Y30470829D01*
X80275000Y-3558798D02*
X77933798Y-5900000D01*
X80275000Y-13250000D02*
X80275000Y-21207747D01*
X98275000Y-10096616D02*
X98275000Y-13250000D01*
X80275000Y3750000D02*
X80275000Y-3558798D01*
X62275000Y32011718D02*
X66186718Y28100000D01*
X60521827Y-5900000D02*
X54000000Y-5900000D01*
X8275000Y30470829D02*
X8275000Y37750000D01*
X26275000Y-3725000D02*
X24100000Y-5900000D01*
X44275000Y-3704169D02*
X42079169Y-5900000D01*
X91000000Y-6000000D02*
X91000000Y-7555560D01*
X48186718Y28100000D02*
X54000000Y28100000D01*
X28900000Y28100000D02*
X36000000Y28100000D01*
X6027487Y-5900000D02*
X0Y-5900000D01*
X26275000Y13717988D02*
X28892988Y11100000D01*
X66186718Y28100000D02*
X72000000Y28100000D01*
X18000000Y28100000D02*
X10645829Y28100000D01*
X44275000Y3750000D02*
X44275000Y-3704169D01*
X75900000Y32000000D02*
X78500000Y32000000D01*
X44275000Y32011718D02*
X48186718Y28100000D01*
X72000000Y13500000D02*
X72000000Y11100000D01*
X62275000Y-13250000D02*
X62275000Y-20438282D01*
X44275000Y12641119D02*
X45816119Y11100000D01*
X91000000Y-7555560D02*
X92444440Y-9000000D01*
X59000000Y18500000D02*
X54000000Y13500000D01*
X8275000Y3750000D02*
X8275000Y-3652487D01*
X28892988Y11100000D02*
X36000000Y11100000D01*
X77000000Y18500000D02*
X72000000Y13500000D01*
X97178384Y-9000000D02*
X98275000Y-10096616D01*
X26275000Y3750000D02*
X26275000Y-3725000D01*
X26275000Y37750000D02*
X26275000Y30725000D01*
X77933798Y-5900000D02*
X72000000Y-5900000D01*
X62275000Y-4146827D02*
X60521827Y-5900000D01*
X98275000Y-19421461D02*
X98275000Y-13250000D01*
X78025000Y18500000D02*
X77000000Y18500000D01*
X78500000Y32000000D02*
X80275000Y33775000D01*
X80275000Y-21207747D02*
X78582747Y-22900000D01*
X90000000Y-22900000D02*
X94796461Y-22900000D01*
X42079169Y-5900000D02*
X36000000Y-5900000D01*
X45816119Y11100000D02*
X54000000Y11100000D01*
X62275000Y-20438282D02*
X59813282Y-22900000D01*
X62275000Y20750000D02*
X60025000Y18500000D01*
X59813282Y-22900000D02*
X54000000Y-22900000D01*
X8275000Y13333625D02*
X10508625Y11100000D01*
X62275000Y37750000D02*
X62275000Y32011718D01*
X60025000Y18500000D02*
X59000000Y18500000D01*
X10508625Y11100000D02*
X18000000Y11100000D01*
%TO.N,main_pinky_home*%
X84843433Y4360567D02*
X82914433Y4360567D01*
X86174000Y3030000D02*
X84843433Y4360567D01*
X79396791Y7878209D02*
X10321791Y7878209D01*
X10321791Y7878209D02*
X5000000Y13200000D01*
X82914433Y4360567D02*
X79396791Y7878209D01*
X-5000000Y13200000D02*
X-3045756Y15154244D01*
X-3045756Y15154244D02*
X-3045756Y22720756D01*
X5000000Y13200000D02*
X-5000000Y13200000D01*
X-3045756Y22720756D02*
X-3275000Y22950000D01*
%TO.N,main_pinky_top*%
X79384659Y14951286D02*
X76829300Y14951286D01*
X25910444Y26621358D02*
X8578642Y26621358D01*
X-5000000Y30200000D02*
X-3000000Y32200000D01*
X64500000Y24000000D02*
X63281121Y25218879D01*
X-3000000Y32200000D02*
X-3000000Y39675000D01*
X5000000Y30200000D02*
X-5000000Y30200000D01*
X76829300Y14951286D02*
X74500000Y12621986D01*
X73178209Y9678209D02*
X66263833Y9678209D01*
X63281121Y25218879D02*
X27312923Y25218879D01*
X-3000000Y39675000D02*
X-3275000Y39950000D01*
X8578642Y26621358D02*
X5000000Y30200000D01*
X84904000Y17000000D02*
X81433373Y17000000D01*
X74500000Y11000000D02*
X73178209Y9678209D01*
X66263833Y9678209D02*
X64500000Y11442042D01*
X86174000Y15730000D02*
X84904000Y17000000D01*
X74500000Y12621986D02*
X74500000Y11000000D01*
X64500000Y11442042D02*
X64500000Y24000000D01*
X27312923Y25218879D02*
X25910444Y26621358D01*
X81433373Y17000000D02*
X79384659Y14951286D01*
%TO.N,main_ring_bottom*%
X15000000Y-1800000D02*
X15000000Y5675000D01*
X13000000Y-3800000D02*
X15000000Y-1800000D01*
X13000000Y-3800000D02*
X23000000Y-3800000D01*
X15000000Y5675000D02*
X14725000Y5950000D01*
%TO.N,main_ring_home*%
X15000000Y22675000D02*
X15000000Y15200000D01*
X82952376Y6900567D02*
X81524734Y8328209D01*
X81524734Y8328209D02*
X27871791Y8328209D01*
X86174000Y5570000D02*
X84843433Y6900567D01*
X27871791Y8328209D02*
X23000000Y13200000D01*
X13000000Y13200000D02*
X23000000Y13200000D01*
X84843433Y6900567D02*
X82952376Y6900567D01*
X15000000Y15200000D02*
X13000000Y13200000D01*
X14725000Y22950000D02*
X15000000Y22675000D01*
%TO.N,main_ring_top*%
X23000000Y30200000D02*
X13000000Y30200000D01*
X85012933Y19431067D02*
X86174000Y18270000D01*
X15000000Y32200000D02*
X15000000Y39675000D01*
X78833733Y25668879D02*
X82000000Y22502612D01*
X27531121Y25668879D02*
X78833733Y25668879D01*
X13000000Y30200000D02*
X15000000Y32200000D01*
X23000000Y30200000D02*
X27531121Y25668879D01*
X83068933Y19431067D02*
X85012933Y19431067D01*
X82000000Y22502612D02*
X82000000Y20500000D01*
X15000000Y39675000D02*
X14725000Y39950000D01*
X82000000Y20500000D02*
X83068933Y19431067D01*
%TO.N,main_middle_bottom*%
X33000000Y5675000D02*
X32725000Y5950000D01*
X31000000Y-3800000D02*
X33000000Y-1800000D01*
X33000000Y-1800000D02*
X33000000Y5675000D01*
X31000000Y-3800000D02*
X41000000Y-3800000D01*
%TO.N,main_middle_home*%
X81005124Y9500000D02*
X80283333Y8778209D01*
X33000000Y15200000D02*
X33000000Y22675000D01*
X84784000Y9500000D02*
X81005124Y9500000D01*
X45421791Y8778209D02*
X41000000Y13200000D01*
X80283333Y8778209D02*
X45421791Y8778209D01*
X86174000Y8110000D02*
X84784000Y9500000D01*
X33000000Y22675000D02*
X32725000Y22950000D01*
X31000000Y13200000D02*
X33000000Y15200000D01*
X31000000Y13200000D02*
X41000000Y13200000D01*
%TO.N,main_middle_top*%
X33000000Y32200000D02*
X33000000Y39675000D01*
X31000000Y30200000D02*
X33000000Y32200000D01*
X41000000Y30200000D02*
X45081121Y26118879D01*
X79020130Y26118879D02*
X83136143Y22002866D01*
X83136143Y22002866D02*
X84981134Y22002866D01*
X31000000Y30200000D02*
X41000000Y30200000D01*
X33000000Y39675000D02*
X32725000Y39950000D01*
X84981134Y22002866D02*
X86174000Y20810000D01*
X45081121Y26118879D02*
X79020130Y26118879D01*
%TO.N,main_index_bottom*%
X51000000Y5675000D02*
X50725000Y5950000D01*
X49000000Y-3800000D02*
X51000000Y-1800000D01*
X51000000Y-1800000D02*
X51000000Y5675000D01*
X49000000Y-3800000D02*
X59000000Y-3800000D01*
%TO.N,main_index_home*%
X84824000Y12000000D02*
X82778893Y12000000D01*
X51000000Y22675000D02*
X50725000Y22950000D01*
X80007102Y9228209D02*
X62971791Y9228209D01*
X86174000Y10650000D02*
X84824000Y12000000D01*
X51000000Y15200000D02*
X51000000Y22675000D01*
X62971791Y9228209D02*
X59000000Y13200000D01*
X49000000Y13200000D02*
X51000000Y15200000D01*
X82778893Y12000000D02*
X80007102Y9228209D01*
%TO.N,main_index_top*%
X51000000Y32200000D02*
X51000000Y39675000D01*
X90238000Y28430000D02*
X88966847Y27158847D01*
X59000000Y30200000D02*
X49000000Y30200000D01*
X88966847Y27158847D02*
X82658847Y27158847D01*
X51000000Y39675000D02*
X50725000Y39950000D01*
X62631121Y26568879D02*
X59000000Y30200000D01*
X49000000Y30200000D02*
X51000000Y32200000D01*
X82068879Y26568879D02*
X62631121Y26568879D01*
X82658847Y27158847D02*
X82068879Y26568879D01*
%TO.N,main_inner_bottom*%
X67000000Y-3800000D02*
X69000000Y-1800000D01*
X69000000Y5675000D02*
X68725000Y5950000D01*
X67000000Y-3800000D02*
X77000000Y-3800000D01*
X69000000Y-1800000D02*
X69000000Y5675000D01*
%TO.N,main_inner_home*%
X86174000Y13190000D02*
X84864000Y14500000D01*
X84864000Y14500000D02*
X82500000Y14500000D01*
X69000000Y15200000D02*
X69000000Y22675000D01*
X81200000Y13200000D02*
X77000000Y13200000D01*
X82500000Y14500000D02*
X81200000Y13200000D01*
X67000000Y13200000D02*
X69000000Y15200000D01*
X69000000Y22675000D02*
X68725000Y22950000D01*
%TO.N,main_inner_top*%
X67000000Y30200000D02*
X69000000Y32200000D01*
X77355000Y29845000D02*
X77000000Y30200000D01*
X89113000Y29845000D02*
X77355000Y29845000D01*
X69000000Y39675000D02*
X68725000Y39950000D01*
X90238000Y30970000D02*
X89113000Y29845000D01*
X69000000Y32200000D02*
X69000000Y39675000D01*
%TO.N,thumb_tucky_default*%
X51000000Y-18800000D02*
X51000000Y-11325000D01*
X49000000Y-20800000D02*
X51000000Y-18800000D01*
X51000000Y-11325000D02*
X50725000Y-11050000D01*
X59000000Y-20800000D02*
X49000000Y-20800000D01*
%TO.N,thumb_middle_default*%
X69000000Y-18800000D02*
X69000000Y-11325000D01*
X67000000Y-20800000D02*
X69000000Y-18800000D01*
X69000000Y-11325000D02*
X68725000Y-11050000D01*
X77000000Y-20800000D02*
X67000000Y-20800000D01*
%TO.N,thumb_reachy_default*%
X85000000Y-20800000D02*
X87000000Y-18800000D01*
X87000000Y-11325000D02*
X86725000Y-11050000D01*
X85000000Y-20800000D02*
X95000000Y-20800000D01*
X87000000Y-18800000D02*
X87000000Y-11325000D01*
%TO.N,pos*%
X90500000Y-4500000D02*
X89000000Y-6000000D01*
X91500000Y-4500000D02*
X90500000Y-4500000D01*
X89000000Y-3000000D02*
X89000000Y-6000000D01*
X93000000Y-6000000D02*
X91500000Y-4500000D01*
X96070000Y-1750000D02*
X95695000Y-1375000D01*
X90625000Y-1375000D02*
X89000000Y-3000000D01*
X95695000Y-1375000D02*
X90625000Y-1375000D01*
%TO.N,RAW*%
X92000000Y-2000000D02*
X94750000Y-4750000D01*
X94750000Y-4750000D02*
X96070000Y-4750000D01*
%TD*%
M02*
