M48
; DRILL file {KiCad (6.0.7)} date Wed 24 Aug 2022 07:02:33 PM CEST
; FORMAT={-:-/ absolute / inch / decimal}
; #@! TF.CreationDate,2022-08-24T19:02:33+02:00
; #@! TF.GenerationSoftware,Kicad,Pcbnew,(6.0.7)
; #@! TF.FileFunction,NonPlated,1,2,NPTH
FMAT,2
INCH
; #@! TA.AperFunction,NonPlated,NPTH,ComponentDrill
T1C0.0354
; #@! TA.AperFunction,NonPlated,NPTH,ComponentDrill
T2C0.0670
; #@! TA.AperFunction,NonPlated,NPTH,ComponentDrill
T3C0.1181
; #@! TA.AperFunction,NonPlated,NPTH,ComponentDrill
T4C0.1350
%
G90
G05
T1
X3.8516Y-0.0984
X3.8516Y-0.0984
X3.8516Y-0.2165
X3.8516Y-0.2165
T2
X-0.2165Y1.3386
X-0.2165Y1.3386
X-0.2165Y0.6693
X-0.2165Y0.6693
X-0.2165Y0.0
X-0.2165Y0.0
X0.2165Y1.3386
X0.2165Y1.3386
X0.2165Y0.6693
X0.2165Y0.6693
X0.2165Y0.0
X0.2165Y0.0
X0.4921Y1.3386
X0.4921Y1.3386
X0.4921Y0.6693
X0.4921Y0.6693
X0.4921Y0.0
X0.4921Y0.0
X0.9252Y1.3386
X0.9252Y1.3386
X0.9252Y0.6693
X0.9252Y0.6693
X0.9252Y0.0
X0.9252Y0.0
X1.2008Y1.3386
X1.2008Y1.3386
X1.2008Y0.6693
X1.2008Y0.6693
X1.2008Y0.0
X1.2008Y0.0
X1.6339Y1.3386
X1.6339Y1.3386
X1.6339Y0.6693
X1.6339Y0.6693
X1.6339Y0.0
X1.6339Y0.0
X1.9094Y1.3386
X1.9094Y1.3386
X1.9094Y0.6693
X1.9094Y0.6693
X1.9094Y0.0
X1.9094Y0.0
X1.9094Y-0.6693
X1.9094Y-0.6693
X2.3425Y1.3386
X2.3425Y1.3386
X2.3425Y0.6693
X2.3425Y0.6693
X2.3425Y0.0
X2.3425Y0.0
X2.3425Y-0.6693
X2.3425Y-0.6693
X2.6181Y1.3386
X2.6181Y1.3386
X2.6181Y0.6693
X2.6181Y0.6693
X2.6181Y0.0
X2.6181Y0.0
X2.6181Y-0.6693
X2.6181Y-0.6693
X3.0512Y1.3386
X3.0512Y1.3386
X3.0512Y0.6693
X3.0512Y0.6693
X3.0512Y0.0
X3.0512Y0.0
X3.0512Y-0.6693
X3.0512Y-0.6693
X3.3268Y-0.6693
X3.3268Y-0.6693
X3.7598Y-0.6693
X3.7598Y-0.6693
T3
X-0.1969Y1.4862
X-0.1969Y0.8169
X-0.1969Y0.1476
X0.0Y1.5728
X0.0Y1.5728
X0.0Y0.9035
X0.0Y0.9035
X0.0Y0.2343
X0.0Y0.2343
X0.1969Y1.4862
X0.1969Y0.8169
X0.1969Y0.1476
X0.5118Y1.4862
X0.5118Y0.8169
X0.5118Y0.1476
X0.7087Y1.5728
X0.7087Y1.5728
X0.7087Y0.9035
X0.7087Y0.9035
X0.7087Y0.2343
X0.7087Y0.2343
X0.9055Y1.4862
X0.9055Y0.8169
X0.9055Y0.1476
X1.2205Y1.4862
X1.2205Y0.8169
X1.2205Y0.1476
X1.4173Y1.5728
X1.4173Y1.5728
X1.4173Y0.9035
X1.4173Y0.9035
X1.4173Y0.2343
X1.4173Y0.2343
X1.6142Y1.4862
X1.6142Y0.8169
X1.6142Y0.1476
X1.9291Y1.4862
X1.9291Y0.8169
X1.9291Y0.1476
X1.9291Y-0.5217
X2.126Y1.5728
X2.126Y1.5728
X2.126Y0.9035
X2.126Y0.9035
X2.126Y0.2343
X2.126Y0.2343
X2.126Y-0.435
X2.126Y-0.435
X2.3228Y1.4862
X2.3228Y0.8169
X2.3228Y0.1476
X2.3228Y-0.5217
X2.6378Y1.4862
X2.6378Y0.8169
X2.6378Y0.1476
X2.6378Y-0.5217
X2.8346Y1.5728
X2.8346Y1.5728
X2.8346Y0.9035
X2.8346Y0.9035
X2.8346Y0.2343
X2.8346Y0.2343
X2.8346Y-0.435
X2.8346Y-0.435
X3.0315Y1.4862
X3.0315Y0.8169
X3.0315Y0.1476
X3.0315Y-0.5217
X3.3465Y-0.5217
X3.5433Y-0.435
X3.5433Y-0.435
X3.7402Y-0.5217
T4
X0.0Y1.3386
X0.0Y1.3386
X0.0Y0.6693
X0.0Y0.6693
X0.0Y0.0
X0.0Y0.0
X0.7087Y1.3386
X0.7087Y1.3386
X0.7087Y0.6693
X0.7087Y0.6693
X0.7087Y0.0
X0.7087Y0.0
X1.4173Y1.3386
X1.4173Y1.3386
X1.4173Y0.6693
X1.4173Y0.6693
X1.4173Y0.0
X1.4173Y0.0
X2.126Y1.3386
X2.126Y1.3386
X2.126Y0.6693
X2.126Y0.6693
X2.126Y0.0
X2.126Y0.0
X2.126Y-0.6693
X2.126Y-0.6693
X2.8346Y1.3386
X2.8346Y1.3386
X2.8346Y0.6693
X2.8346Y0.6693
X2.8346Y0.0
X2.8346Y0.0
X2.8346Y-0.6693
X2.8346Y-0.6693
X3.5433Y-0.6693
X3.5433Y-0.6693
T0
M30
