%TF.GenerationSoftware,KiCad,Pcbnew,(6.0.7)*%
%TF.CreationDate,2022-08-24T19:26:19+02:00*%
%TF.ProjectId,leko_pona,6c656b6f-5f70-46f6-9e61-2e6b69636164,v1.0.0*%
%TF.SameCoordinates,Original*%
%TF.FileFunction,Soldermask,Top*%
%TF.FilePolarity,Negative*%
%FSLAX46Y46*%
G04 Gerber Fmt 4.6, Leading zero omitted, Abs format (unit mm)*
G04 Created by KiCad (PCBNEW (6.0.7)) date 2022-08-24 19:26:19*
%MOMM*%
%LPD*%
G01*
G04 APERTURE LIST*
G04 Aperture macros list*
%AMRoundRect*
0 Rectangle with rounded corners*
0 $1 Rounding radius*
0 $2 $3 $4 $5 $6 $7 $8 $9 X,Y pos of 4 corners*
0 Add a 4 corners polygon primitive as box body*
4,1,4,$2,$3,$4,$5,$6,$7,$8,$9,$2,$3,0*
0 Add four circle primitives for the rounded corners*
1,1,$1+$1,$2,$3*
1,1,$1+$1,$4,$5*
1,1,$1+$1,$6,$7*
1,1,$1+$1,$8,$9*
0 Add four rect primitives between the rounded corners*
20,1,$1+$1,$2,$3,$4,$5,0*
20,1,$1+$1,$4,$5,$6,$7,0*
20,1,$1+$1,$6,$7,$8,$9,0*
20,1,$1+$1,$8,$9,$2,$3,0*%
%AMFreePoly0*
4,1,14,0.635355,0.435355,0.650000,0.400000,0.650000,0.200000,0.635355,0.164645,0.035355,-0.435355,0.000000,-0.450000,-0.035355,-0.435355,-0.635355,0.164645,-0.650000,0.200000,-0.650000,0.400000,-0.635355,0.435355,-0.600000,0.450000,0.600000,0.450000,0.635355,0.435355,0.635355,0.435355,$1*%
%AMFreePoly1*
4,1,16,0.635355,1.035355,0.650000,1.000000,0.650000,-0.250000,0.635355,-0.285355,0.600000,-0.300000,-0.600000,-0.300000,-0.635355,-0.285355,-0.650000,-0.250000,-0.650000,1.000000,-0.635355,1.035355,-0.600000,1.050000,-0.564645,1.035355,0.000000,0.470710,0.564645,1.035355,0.600000,1.050000,0.635355,1.035355,0.635355,1.035355,$1*%
G04 Aperture macros list end*
%ADD10C,0.250000*%
%ADD11C,0.100000*%
%ADD12C,3.100000*%
%ADD13C,1.801800*%
%ADD14C,3.529000*%
%ADD15RoundRect,0.050000X-1.300000X-1.300000X1.300000X-1.300000X1.300000X1.300000X-1.300000X1.300000X0*%
%ADD16C,2.132000*%
%ADD17RoundRect,0.050000X-0.500000X-0.400000X0.500000X-0.400000X0.500000X0.400000X-0.500000X0.400000X0*%
%ADD18C,1.000000*%
%ADD19RoundRect,0.050000X-0.350000X-0.750000X0.350000X-0.750000X0.350000X0.750000X-0.350000X0.750000X0*%
%ADD20C,1.700000*%
%ADD21FreePoly0,270.000000*%
%ADD22FreePoly0,90.000000*%
%ADD23RoundRect,0.050000X-0.800000X0.800000X-0.800000X-0.800000X0.800000X-0.800000X0.800000X0.800000X0*%
%ADD24FreePoly1,270.000000*%
%ADD25FreePoly1,90.000000*%
%ADD26RoundRect,0.050000X0.600000X0.850000X-0.600000X0.850000X-0.600000X-0.850000X0.600000X-0.850000X0*%
%ADD27O,1.300000X1.800000*%
G04 APERTURE END LIST*
D10*
%TO.C,MCU1*%
X91887000Y3030000D02*
G75*
G03*
X91887000Y3030000I-125000J0D01*
G01*
X91887000Y10650000D02*
G75*
G03*
X91887000Y10650000I-125000J0D01*
G01*
X91887000Y23350000D02*
G75*
G03*
X91887000Y23350000I-125000J0D01*
G01*
X90363000Y3030000D02*
G75*
G03*
X90363000Y3030000I-125000J0D01*
G01*
X90363000Y8110000D02*
G75*
G03*
X90363000Y8110000I-125000J0D01*
G01*
X91887000Y28430000D02*
G75*
G03*
X91887000Y28430000I-125000J0D01*
G01*
X91887000Y13190000D02*
G75*
G03*
X91887000Y13190000I-125000J0D01*
G01*
X90363000Y10650000D02*
G75*
G03*
X90363000Y10650000I-125000J0D01*
G01*
X91887000Y18270000D02*
G75*
G03*
X91887000Y18270000I-125000J0D01*
G01*
X91887000Y8110000D02*
G75*
G03*
X91887000Y8110000I-125000J0D01*
G01*
X91887000Y20810000D02*
G75*
G03*
X91887000Y20810000I-125000J0D01*
G01*
X90363000Y20810000D02*
G75*
G03*
X90363000Y20810000I-125000J0D01*
G01*
X91887000Y25890000D02*
G75*
G03*
X91887000Y25890000I-125000J0D01*
G01*
X90363000Y18270000D02*
G75*
G03*
X90363000Y18270000I-125000J0D01*
G01*
X91887000Y30970000D02*
G75*
G03*
X91887000Y30970000I-125000J0D01*
G01*
X90363000Y28430000D02*
G75*
G03*
X90363000Y28430000I-125000J0D01*
G01*
X90363000Y5570000D02*
G75*
G03*
X90363000Y5570000I-125000J0D01*
G01*
X90363000Y25890000D02*
G75*
G03*
X90363000Y25890000I-125000J0D01*
G01*
X91887000Y5570000D02*
G75*
G03*
X91887000Y5570000I-125000J0D01*
G01*
X90363000Y23350000D02*
G75*
G03*
X90363000Y23350000I-125000J0D01*
G01*
X90363000Y13190000D02*
G75*
G03*
X90363000Y13190000I-125000J0D01*
G01*
X91887000Y15730000D02*
G75*
G03*
X91887000Y15730000I-125000J0D01*
G01*
X90363000Y15730000D02*
G75*
G03*
X90363000Y15730000I-125000J0D01*
G01*
X90363000Y30970000D02*
G75*
G03*
X90363000Y30970000I-125000J0D01*
G01*
G36*
X97096000Y2522000D02*
G01*
X96080000Y2522000D01*
X96080000Y3538000D01*
X97096000Y3538000D01*
X97096000Y2522000D01*
G37*
D11*
X97096000Y2522000D02*
X96080000Y2522000D01*
X96080000Y3538000D01*
X97096000Y3538000D01*
X97096000Y2522000D01*
G36*
X97096000Y12682000D02*
G01*
X96080000Y12682000D01*
X96080000Y13698000D01*
X97096000Y13698000D01*
X97096000Y12682000D01*
G37*
X97096000Y12682000D02*
X96080000Y12682000D01*
X96080000Y13698000D01*
X97096000Y13698000D01*
X97096000Y12682000D01*
G36*
X97096000Y10142000D02*
G01*
X96080000Y10142000D01*
X96080000Y11158000D01*
X97096000Y11158000D01*
X97096000Y10142000D01*
G37*
X97096000Y10142000D02*
X96080000Y10142000D01*
X96080000Y11158000D01*
X97096000Y11158000D01*
X97096000Y10142000D01*
G36*
X85920000Y10142000D02*
G01*
X84904000Y10142000D01*
X84904000Y11158000D01*
X85920000Y11158000D01*
X85920000Y10142000D01*
G37*
X85920000Y10142000D02*
X84904000Y10142000D01*
X84904000Y11158000D01*
X85920000Y11158000D01*
X85920000Y10142000D01*
G36*
X97096000Y22842000D02*
G01*
X96080000Y22842000D01*
X96080000Y23858000D01*
X97096000Y23858000D01*
X97096000Y22842000D01*
G37*
X97096000Y22842000D02*
X96080000Y22842000D01*
X96080000Y23858000D01*
X97096000Y23858000D01*
X97096000Y22842000D01*
G36*
X97096000Y17762000D02*
G01*
X96080000Y17762000D01*
X96080000Y18778000D01*
X97096000Y18778000D01*
X97096000Y17762000D01*
G37*
X97096000Y17762000D02*
X96080000Y17762000D01*
X96080000Y18778000D01*
X97096000Y18778000D01*
X97096000Y17762000D01*
G36*
X97096000Y5062000D02*
G01*
X96080000Y5062000D01*
X96080000Y6078000D01*
X97096000Y6078000D01*
X97096000Y5062000D01*
G37*
X97096000Y5062000D02*
X96080000Y5062000D01*
X96080000Y6078000D01*
X97096000Y6078000D01*
X97096000Y5062000D01*
G36*
X97096000Y25382000D02*
G01*
X96080000Y25382000D01*
X96080000Y26398000D01*
X97096000Y26398000D01*
X97096000Y25382000D01*
G37*
X97096000Y25382000D02*
X96080000Y25382000D01*
X96080000Y26398000D01*
X97096000Y26398000D01*
X97096000Y25382000D01*
G36*
X85920000Y22842000D02*
G01*
X84904000Y22842000D01*
X84904000Y23858000D01*
X85920000Y23858000D01*
X85920000Y22842000D01*
G37*
X85920000Y22842000D02*
X84904000Y22842000D01*
X84904000Y23858000D01*
X85920000Y23858000D01*
X85920000Y22842000D01*
G36*
X97096000Y15222000D02*
G01*
X96080000Y15222000D01*
X96080000Y16238000D01*
X97096000Y16238000D01*
X97096000Y15222000D01*
G37*
X97096000Y15222000D02*
X96080000Y15222000D01*
X96080000Y16238000D01*
X97096000Y16238000D01*
X97096000Y15222000D01*
G36*
X85920000Y27922000D02*
G01*
X84904000Y27922000D01*
X84904000Y28938000D01*
X85920000Y28938000D01*
X85920000Y27922000D01*
G37*
X85920000Y27922000D02*
X84904000Y27922000D01*
X84904000Y28938000D01*
X85920000Y28938000D01*
X85920000Y27922000D01*
G36*
X97096000Y7602000D02*
G01*
X96080000Y7602000D01*
X96080000Y8618000D01*
X97096000Y8618000D01*
X97096000Y7602000D01*
G37*
X97096000Y7602000D02*
X96080000Y7602000D01*
X96080000Y8618000D01*
X97096000Y8618000D01*
X97096000Y7602000D01*
G36*
X85920000Y17762000D02*
G01*
X84904000Y17762000D01*
X84904000Y18778000D01*
X85920000Y18778000D01*
X85920000Y17762000D01*
G37*
X85920000Y17762000D02*
X84904000Y17762000D01*
X84904000Y18778000D01*
X85920000Y18778000D01*
X85920000Y17762000D01*
G36*
X85920000Y12682000D02*
G01*
X84904000Y12682000D01*
X84904000Y13698000D01*
X85920000Y13698000D01*
X85920000Y12682000D01*
G37*
X85920000Y12682000D02*
X84904000Y12682000D01*
X84904000Y13698000D01*
X85920000Y13698000D01*
X85920000Y12682000D01*
G36*
X85920000Y7602000D02*
G01*
X84904000Y7602000D01*
X84904000Y8618000D01*
X85920000Y8618000D01*
X85920000Y7602000D01*
G37*
X85920000Y7602000D02*
X84904000Y7602000D01*
X84904000Y8618000D01*
X85920000Y8618000D01*
X85920000Y7602000D01*
G36*
X85920000Y5062000D02*
G01*
X84904000Y5062000D01*
X84904000Y6078000D01*
X85920000Y6078000D01*
X85920000Y5062000D01*
G37*
X85920000Y5062000D02*
X84904000Y5062000D01*
X84904000Y6078000D01*
X85920000Y6078000D01*
X85920000Y5062000D01*
G36*
X85920000Y15222000D02*
G01*
X84904000Y15222000D01*
X84904000Y16238000D01*
X85920000Y16238000D01*
X85920000Y15222000D01*
G37*
X85920000Y15222000D02*
X84904000Y15222000D01*
X84904000Y16238000D01*
X85920000Y16238000D01*
X85920000Y15222000D01*
G36*
X85920000Y25382000D02*
G01*
X84904000Y25382000D01*
X84904000Y26398000D01*
X85920000Y26398000D01*
X85920000Y25382000D01*
G37*
X85920000Y25382000D02*
X84904000Y25382000D01*
X84904000Y26398000D01*
X85920000Y26398000D01*
X85920000Y25382000D01*
G36*
X97096000Y27922000D02*
G01*
X96080000Y27922000D01*
X96080000Y28938000D01*
X97096000Y28938000D01*
X97096000Y27922000D01*
G37*
X97096000Y27922000D02*
X96080000Y27922000D01*
X96080000Y28938000D01*
X97096000Y28938000D01*
X97096000Y27922000D01*
G36*
X85920000Y30462000D02*
G01*
X84904000Y30462000D01*
X84904000Y31478000D01*
X85920000Y31478000D01*
X85920000Y30462000D01*
G37*
X85920000Y30462000D02*
X84904000Y30462000D01*
X84904000Y31478000D01*
X85920000Y31478000D01*
X85920000Y30462000D01*
G36*
X97096000Y20302000D02*
G01*
X96080000Y20302000D01*
X96080000Y21318000D01*
X97096000Y21318000D01*
X97096000Y20302000D01*
G37*
X97096000Y20302000D02*
X96080000Y20302000D01*
X96080000Y21318000D01*
X97096000Y21318000D01*
X97096000Y20302000D01*
G36*
X85920000Y2522000D02*
G01*
X84904000Y2522000D01*
X84904000Y3538000D01*
X85920000Y3538000D01*
X85920000Y2522000D01*
G37*
X85920000Y2522000D02*
X84904000Y2522000D01*
X84904000Y3538000D01*
X85920000Y3538000D01*
X85920000Y2522000D01*
G36*
X97096000Y30462000D02*
G01*
X96080000Y30462000D01*
X96080000Y31478000D01*
X97096000Y31478000D01*
X97096000Y30462000D01*
G37*
X97096000Y30462000D02*
X96080000Y30462000D01*
X96080000Y31478000D01*
X97096000Y31478000D01*
X97096000Y30462000D01*
G36*
X85920000Y20302000D02*
G01*
X84904000Y20302000D01*
X84904000Y21318000D01*
X85920000Y21318000D01*
X85920000Y20302000D01*
G37*
X85920000Y20302000D02*
X84904000Y20302000D01*
X84904000Y21318000D01*
X85920000Y21318000D01*
X85920000Y20302000D01*
%TD*%
D12*
%TO.C,S31*%
X54000000Y-11050000D03*
D13*
X59500000Y-17000000D03*
D14*
X54000000Y-17000000D03*
D13*
X48500000Y-17000000D03*
D12*
X49000000Y-13250000D03*
X54000000Y-11050000D03*
X59000000Y-13250000D03*
D15*
X57275000Y-11050000D03*
X45725000Y-13250000D03*
%TD*%
D14*
%TO.C,S19*%
X54000000Y0D03*
D12*
X54000000Y5950000D03*
X54000000Y5950000D03*
D13*
X48500000Y0D03*
D12*
X49000000Y3750000D03*
X59000000Y3750000D03*
D13*
X59500000Y0D03*
D15*
X57275000Y5950000D03*
X45725000Y3750000D03*
%TD*%
D12*
%TO.C,S9*%
X18000000Y22950000D03*
X13000000Y20750000D03*
X18000000Y22950000D03*
X23000000Y20750000D03*
D14*
X18000000Y17000000D03*
D13*
X23500000Y17000000D03*
X12500000Y17000000D03*
D15*
X21275000Y22950000D03*
X9725000Y20750000D03*
%TD*%
D14*
%TO.C,S11*%
X18000000Y34000000D03*
D12*
X18000000Y39950000D03*
D13*
X12500000Y34000000D03*
D12*
X13000000Y37750000D03*
D13*
X23500000Y34000000D03*
D12*
X18000000Y39950000D03*
X23000000Y37750000D03*
D15*
X21275000Y39950000D03*
X9725000Y37750000D03*
%TD*%
D12*
%TO.C,S7*%
X18000000Y5950000D03*
X18000000Y5950000D03*
D13*
X23500000Y0D03*
D12*
X13000000Y3750000D03*
X23000000Y3750000D03*
D14*
X18000000Y0D03*
D13*
X12500000Y0D03*
D15*
X21275000Y5950000D03*
X9725000Y3750000D03*
%TD*%
D12*
%TO.C,S23*%
X49000000Y37750000D03*
X59000000Y37750000D03*
D13*
X59500000Y34000000D03*
D12*
X54000000Y39950000D03*
X54000000Y39950000D03*
D14*
X54000000Y34000000D03*
D13*
X48500000Y34000000D03*
D15*
X57275000Y39950000D03*
X45725000Y37750000D03*
%TD*%
D13*
%TO.C,S1*%
X-5500000Y0D03*
D12*
X0Y5950000D03*
X-5000000Y3750000D03*
D14*
X0Y0D03*
D13*
X5500000Y0D03*
D12*
X0Y5950000D03*
X5000000Y3750000D03*
D15*
X3275000Y5950000D03*
X-8275000Y3750000D03*
%TD*%
D14*
%TO.C,S28*%
X72000000Y17000000D03*
D13*
X77500000Y17000000D03*
X66500000Y17000000D03*
D16*
X67000000Y13200000D03*
X77000000Y13200000D03*
X72000000Y11100000D03*
X72000000Y11100000D03*
%TD*%
D13*
%TO.C,S8*%
X23500000Y0D03*
D14*
X18000000Y0D03*
D13*
X12500000Y0D03*
D16*
X13000000Y-3800000D03*
X23000000Y-3800000D03*
X18000000Y-5900000D03*
X18000000Y-5900000D03*
%TD*%
D13*
%TO.C,S20*%
X59500000Y0D03*
D14*
X54000000Y0D03*
D13*
X48500000Y0D03*
D16*
X49000000Y-3800000D03*
X59000000Y-3800000D03*
X54000000Y-5900000D03*
X54000000Y-5900000D03*
%TD*%
D17*
%TO.C,*%
X98930000Y-350000D03*
X98930000Y-7650000D03*
X96720000Y-350000D03*
D18*
X97830000Y-2500000D03*
X97830000Y-5500000D03*
X97830000Y-5500000D03*
D17*
X96720000Y-7650000D03*
D18*
X97830000Y-2500000D03*
D19*
X96070000Y-6250000D03*
X96070000Y-3250000D03*
X96070000Y-1750000D03*
%TD*%
D12*
%TO.C,S33*%
X77000000Y-13250000D03*
D13*
X66500000Y-17000000D03*
D12*
X72000000Y-11050000D03*
D14*
X72000000Y-17000000D03*
D13*
X77500000Y-17000000D03*
D12*
X72000000Y-11050000D03*
X67000000Y-13250000D03*
D15*
X75275000Y-11050000D03*
X63725000Y-13250000D03*
%TD*%
D13*
%TO.C,S22*%
X48500000Y17000000D03*
D14*
X54000000Y17000000D03*
D13*
X59500000Y17000000D03*
D16*
X59000000Y13200000D03*
X49000000Y13200000D03*
X54000000Y11100000D03*
X54000000Y11100000D03*
%TD*%
D14*
%TO.C,S6*%
X0Y34000000D03*
D13*
X5500000Y34000000D03*
X-5500000Y34000000D03*
D16*
X5000000Y30200000D03*
X-5000000Y30200000D03*
X0Y28100000D03*
X0Y28100000D03*
%TD*%
D13*
%TO.C,S27*%
X66500000Y17000000D03*
D12*
X72000000Y22950000D03*
X67000000Y20750000D03*
D13*
X77500000Y17000000D03*
D14*
X72000000Y17000000D03*
D12*
X77000000Y20750000D03*
X72000000Y22950000D03*
D15*
X75275000Y22950000D03*
X63725000Y20750000D03*
%TD*%
D14*
%TO.C,S14*%
X36000000Y0D03*
D13*
X30500000Y0D03*
X41500000Y0D03*
D16*
X41000000Y-3800000D03*
X31000000Y-3800000D03*
X36000000Y-5900000D03*
X36000000Y-5900000D03*
%TD*%
D13*
%TO.C,S34*%
X66500000Y-17000000D03*
X77500000Y-17000000D03*
D14*
X72000000Y-17000000D03*
D16*
X67000000Y-20800000D03*
X77000000Y-20800000D03*
X72000000Y-22900000D03*
X72000000Y-22900000D03*
%TD*%
D12*
%TO.C,S15*%
X41000000Y20750000D03*
D13*
X30500000Y17000000D03*
X41500000Y17000000D03*
D12*
X31000000Y20750000D03*
X36000000Y22950000D03*
X36000000Y22950000D03*
D14*
X36000000Y17000000D03*
D15*
X39275000Y22950000D03*
X27725000Y20750000D03*
%TD*%
D13*
%TO.C,S18*%
X30500000Y34000000D03*
D14*
X36000000Y34000000D03*
D13*
X41500000Y34000000D03*
D16*
X31000000Y30200000D03*
X41000000Y30200000D03*
X36000000Y28100000D03*
X36000000Y28100000D03*
%TD*%
D12*
%TO.C,S21*%
X49000000Y20750000D03*
D13*
X48500000Y17000000D03*
D12*
X54000000Y22950000D03*
X59000000Y20750000D03*
D13*
X59500000Y17000000D03*
D12*
X54000000Y22950000D03*
D14*
X54000000Y17000000D03*
D15*
X57275000Y22950000D03*
X45725000Y20750000D03*
%TD*%
D14*
%TO.C,S32*%
X54000000Y-17000000D03*
D13*
X59500000Y-17000000D03*
X48500000Y-17000000D03*
D16*
X59000000Y-20800000D03*
X49000000Y-20800000D03*
X54000000Y-22900000D03*
X54000000Y-22900000D03*
%TD*%
D13*
%TO.C,S30*%
X66500000Y34000000D03*
X77500000Y34000000D03*
D14*
X72000000Y34000000D03*
D16*
X67000000Y30200000D03*
X77000000Y30200000D03*
X72000000Y28100000D03*
X72000000Y28100000D03*
%TD*%
D14*
%TO.C,S29*%
X72000000Y34000000D03*
D12*
X67000000Y37750000D03*
D13*
X66500000Y34000000D03*
X77500000Y34000000D03*
D12*
X77000000Y37750000D03*
X72000000Y39950000D03*
X72000000Y39950000D03*
D15*
X75275000Y39950000D03*
X63725000Y37750000D03*
%TD*%
D13*
%TO.C,S25*%
X77500000Y0D03*
D12*
X72000000Y5950000D03*
X67000000Y3750000D03*
D14*
X72000000Y0D03*
D13*
X66500000Y0D03*
D12*
X72000000Y5950000D03*
X77000000Y3750000D03*
D15*
X75275000Y5950000D03*
X63725000Y3750000D03*
%TD*%
D13*
%TO.C,S36*%
X84500000Y-17000000D03*
X95500000Y-17000000D03*
D14*
X90000000Y-17000000D03*
D16*
X95000000Y-20800000D03*
X85000000Y-20800000D03*
X90000000Y-22900000D03*
X90000000Y-22900000D03*
%TD*%
D13*
%TO.C,S17*%
X30500000Y34000000D03*
D12*
X36000000Y39950000D03*
X36000000Y39950000D03*
X41000000Y37750000D03*
D13*
X41500000Y34000000D03*
D12*
X31000000Y37750000D03*
D14*
X36000000Y34000000D03*
D15*
X39275000Y39950000D03*
X27725000Y37750000D03*
%TD*%
D12*
%TO.C,S35*%
X90000000Y-11050000D03*
X85000000Y-13250000D03*
D13*
X84500000Y-17000000D03*
X95500000Y-17000000D03*
D12*
X95000000Y-13250000D03*
X90000000Y-11050000D03*
D14*
X90000000Y-17000000D03*
D15*
X93275000Y-11050000D03*
X81725000Y-13250000D03*
%TD*%
D14*
%TO.C,S12*%
X18000000Y34000000D03*
D13*
X12500000Y34000000D03*
X23500000Y34000000D03*
D16*
X13000000Y30200000D03*
X23000000Y30200000D03*
X18000000Y28100000D03*
X18000000Y28100000D03*
%TD*%
D12*
%TO.C,S13*%
X36000000Y5950000D03*
X41000000Y3750000D03*
X36000000Y5950000D03*
X31000000Y3750000D03*
D13*
X41500000Y0D03*
D14*
X36000000Y0D03*
D13*
X30500000Y0D03*
D15*
X39275000Y5950000D03*
X27725000Y3750000D03*
%TD*%
D20*
%TO.C,MCU1*%
X98620000Y28430000D03*
D21*
X96842000Y13190000D03*
D20*
X83380000Y15730000D03*
D22*
X85158000Y8110000D03*
D20*
X98620000Y23350000D03*
X98620000Y8110000D03*
X98620000Y13190000D03*
D21*
X96842000Y23350000D03*
D22*
X85158000Y20810000D03*
D20*
X83380000Y20810000D03*
X83380000Y23350000D03*
D22*
X85158000Y10650000D03*
D20*
X83380000Y10650000D03*
D21*
X96842000Y15730000D03*
D20*
X83380000Y18270000D03*
X98620000Y30970000D03*
X98620000Y3030000D03*
X98620000Y25890000D03*
X83380000Y5570000D03*
X98620000Y20810000D03*
D22*
X85158000Y15730000D03*
D20*
X83380000Y28430000D03*
D21*
X96842000Y18270000D03*
D23*
X83380000Y30970000D03*
D20*
X83380000Y30970000D03*
D22*
X85158000Y13190000D03*
X85158000Y25890000D03*
D21*
X96842000Y30970000D03*
D20*
X98620000Y15730000D03*
X83380000Y25890000D03*
X98620000Y18270000D03*
D22*
X85158000Y28430000D03*
D20*
X98620000Y5570000D03*
D22*
X85158000Y18270000D03*
D21*
X96842000Y5570000D03*
D22*
X85158000Y3030000D03*
D20*
X83380000Y3030000D03*
D22*
X85158000Y30970000D03*
X85158000Y5570000D03*
D20*
X83380000Y8110000D03*
D21*
X96842000Y3030000D03*
X96842000Y8110000D03*
D22*
X85158000Y23350000D03*
D21*
X96842000Y20810000D03*
D20*
X98620000Y10650000D03*
D21*
X96842000Y28430000D03*
D20*
X83380000Y13190000D03*
D21*
X96842000Y10650000D03*
X96842000Y25890000D03*
D24*
X95826000Y30970000D03*
X95826000Y28430000D03*
X95826000Y25890000D03*
X95826000Y23350000D03*
X95826000Y20810000D03*
X95826000Y18270000D03*
X95826000Y15730000D03*
X95826000Y13190000D03*
X95826000Y10650000D03*
X95826000Y8110000D03*
X95826000Y5570000D03*
X95826000Y3030000D03*
D25*
X86174000Y3030000D03*
X86174000Y5570000D03*
X86174000Y8110000D03*
X86174000Y10650000D03*
X86174000Y13190000D03*
X86174000Y15730000D03*
X86174000Y18270000D03*
X86174000Y20810000D03*
X86174000Y23350000D03*
X86174000Y25890000D03*
X86174000Y28430000D03*
X86174000Y30970000D03*
%TD*%
D14*
%TO.C,S24*%
X54000000Y34000000D03*
D13*
X59500000Y34000000D03*
X48500000Y34000000D03*
D16*
X49000000Y30200000D03*
X59000000Y30200000D03*
X54000000Y28100000D03*
X54000000Y28100000D03*
%TD*%
D13*
%TO.C,S16*%
X30500000Y17000000D03*
D14*
X36000000Y17000000D03*
D13*
X41500000Y17000000D03*
D16*
X41000000Y13200000D03*
X31000000Y13200000D03*
X36000000Y11100000D03*
X36000000Y11100000D03*
%TD*%
D14*
%TO.C,S10*%
X18000000Y17000000D03*
D13*
X23500000Y17000000D03*
X12500000Y17000000D03*
D16*
X23000000Y13200000D03*
X13000000Y13200000D03*
X18000000Y11100000D03*
X18000000Y11100000D03*
%TD*%
D14*
%TO.C,S3*%
X0Y17000000D03*
D12*
X0Y22950000D03*
X-5000000Y20750000D03*
X5000000Y20750000D03*
D13*
X-5500000Y17000000D03*
X5500000Y17000000D03*
D12*
X0Y22950000D03*
D15*
X3275000Y22950000D03*
X-8275000Y20750000D03*
%TD*%
D13*
%TO.C,S26*%
X77500000Y0D03*
D14*
X72000000Y0D03*
D13*
X66500000Y0D03*
D16*
X77000000Y-3800000D03*
X67000000Y-3800000D03*
X72000000Y-5900000D03*
X72000000Y-5900000D03*
%TD*%
D26*
%TO.C,JST1*%
X93000000Y-6000000D03*
D27*
X91000000Y-6000000D03*
D26*
X89000000Y-6000000D03*
%TD*%
D13*
%TO.C,S2*%
X-5500000Y0D03*
D14*
X0Y0D03*
D13*
X5500000Y0D03*
D16*
X-5000000Y-3800000D03*
X5000000Y-3800000D03*
X0Y-5900000D03*
X0Y-5900000D03*
%TD*%
D13*
%TO.C,S4*%
X-5500000Y17000000D03*
X5500000Y17000000D03*
D14*
X0Y17000000D03*
D16*
X-5000000Y13200000D03*
X5000000Y13200000D03*
X0Y11100000D03*
X0Y11100000D03*
%TD*%
D12*
%TO.C,S5*%
X-5000000Y37750000D03*
X5000000Y37750000D03*
D13*
X5500000Y34000000D03*
D12*
X0Y39950000D03*
X0Y39950000D03*
D14*
X0Y34000000D03*
D13*
X-5500000Y34000000D03*
D15*
X3275000Y39950000D03*
X-8275000Y37750000D03*
%TD*%
M02*
